<?xml version="1.0" encoding="UTF-8" standalone="no"?> <svg xmlns:inkscape="http://www.inkscape.org/namespaces/inkscape" xmlns:sodipodi="http://sodipodi.sourceforge.net/DTD/sodipodi-0.dtd" xmlns:xlink="http://www.w3.org/1999/xlink" xmlns="http://www.w3.org/2000/svg" xmlns:svg="http://www.w3.org/2000/svg" width="125.84608" height="29.914616" viewBox="0 0 33.296778 7.914909" version="1.1" id="svg5"><defs id="defs2"><linearGradient id="linearGradient28800"><stop style="stop-color:#101010;stop-opacity:1" offset="0" id="stop28796"></stop><stop style="stop-color:#5d536c;stop-opacity:1" offset="1" id="stop28798"></stop></linearGradient><linearGradient id="linearGradient27734"><stop style="stop-color:#390064;stop-opacity:1" offset="0" id="stop27730"></stop><stop style="stop-color:#ffbb90;stop-opacity:1" offset="1" id="stop27732"></stop></linearGradient><linearGradient xlink:href="#linearGradient27734" id="linearGradient27736" x1="80.762741" y1="89.026466" x2="92.89325" y2="89.026466" gradientUnits="userSpaceOnUse"></linearGradient><linearGradient xlink:href="#linearGradient28800" id="linearGradient28634" x1="61.537506" y1="76.041039" x2="65.634476" y2="80.501442" gradientUnits="userSpaceOnUse" gradientTransform="matrix(0.95473716,0,0,0.82460031,3.1777223,14.100207)"></linearGradient><linearGradient xlink:href="#linearGradient28800" id="linearGradient28636" x1="49.977261" y1="74.704498" x2="49.996571" y2="86.350639" gradientUnits="userSpaceOnUse" gradientTransform="translate(23.388356,-0.52916669)"></linearGradient><linearGradient xlink:href="#linearGradient27734" id="linearGradient34270" gradientUnits="userSpaceOnUse" x1="82.986732" y1="84.280762" x2="92.89325" y2="89.026466"></linearGradient><linearGradient xlink:href="#linearGradient27734" id="linearGradient34272" gradientUnits="userSpaceOnUse" x1="82.00499" y1="85.896049" x2="92.89325" y2="89.026466"></linearGradient><linearGradient xlink:href="#linearGradient27734" id="linearGradient34274" gradientUnits="userSpaceOnUse" x1="82.00499" y1="85.896049" x2="92.89325" y2="89.026466"></linearGradient><linearGradient xlink:href="#linearGradient27734" id="linearGradient34276" gradientUnits="userSpaceOnUse" x1="82.00499" y1="85.896049" x2="92.89325" y2="89.026466"></linearGradient><linearGradient xlink:href="#linearGradient28800" id="linearGradient14894" x1="50.110394" y1="78.114204" x2="50.279034" y2="84.740761" gradientUnits="userSpaceOnUse"></linearGradient><linearGradient xlink:href="#linearGradient28800" id="linearGradient3591" gradientUnits="userSpaceOnUse" x1="50.110394" y1="78.114204" x2="50.279034" y2="84.740761"></linearGradient><linearGradient xlink:href="#linearGradient28800" id="linearGradient3593" gradientUnits="userSpaceOnUse" x1="50.110394" y1="78.114204" x2="50.279034" y2="84.740761"></linearGradient><linearGradient xlink:href="#linearGradient28800" id="linearGradient3595" gradientUnits="userSpaceOnUse" x1="50.110394" y1="78.114204" x2="50.279034" y2="84.740761"></linearGradient><linearGradient xlink:href="#linearGradient28800" id="linearGradient3597" gradientUnits="userSpaceOnUse" x1="50.110394" y1="78.114204" x2="50.279034" y2="84.740761"></linearGradient></defs><g id="layer1" transform="translate(-44.108583,-76.522349)"><g aria-label="ight " id="text2694" style="font-weight:bold;font-size:6.81933px;line-height:1.25;font-family:'Nirmala UI';-inkscape-font-specification:'Nirmala UI Bold';fill:url(#linearGradient28636);stroke-width:0.170478"><path d="m 65.611382,78.886563 q -0.26638,0 -0.436197,-0.156499 -0.169818,-0.159828 -0.169818,-0.38958 0,-0.236413 0.169818,-0.386252 0.169817,-0.149838 0.436197,-0.149838 0.26971,0 0.436198,0.149838 0.169817,0.149839 0.169817,0.386252 0,0.239742 -0.169817,0.39291 -0.166488,0.153169 -0.436198,0.153169 z m 0.519441,3.949085 h -1.052201 v -3.409666 h 1.052201 z" id="path853"></path><path d="m 70.359607,82.446067 q 0,0.948979 -0.549409,1.46842 -0.549409,0.522771 -1.591621,0.522771 -0.689258,0 -1.092158,-0.196455 v -0.885714 q 0.526101,0.306337 1.06219,0.306337 0.532761,0 0.825779,-0.283029 0.293018,-0.279699 0.293018,-0.762513 v -0.26971 h -0.01332 q -0.359613,0.572717 -1.062191,0.572717 -0.652631,0 -1.035552,-0.459505 -0.382922,-0.459506 -0.382922,-1.232008 0,-0.865735 0.426208,-1.375187 0.426209,-0.509452 1.122126,-0.509452 0.622664,0 0.932331,0.479484 h 0.01332 v -0.396241 h 1.052201 z M 69.320725,81.19741 V 80.9277 q 0,-0.322986 -0.193126,-0.549409 -0.189796,-0.229753 -0.496133,-0.229753 -0.349624,0 -0.549409,0.27304 -0.199785,0.27304 -0.199785,0.769173 0,0.426208 0.189796,0.675939 0.189796,0.246402 0.519441,0.246402 0.326316,0 0.526101,-0.249732 0.203115,-0.253061 0.203115,-0.66595 z" id="path855"></path><path d="m 74.511807,82.835648 h -1.048871 v -1.937916 q 0,-0.749194 -0.54608,-0.749194 -0.279699,0 -0.452846,0.209775 -0.173147,0.209774 -0.173147,0.53276 v 1.944575 h -1.052201 v -5.047903 h 1.052201 v 2.14436 h 0.01332 q 0.386251,-0.589366 1.048872,-0.589366 1.158753,0 1.158753,1.398495 z" id="path857"></path><path d="m 77.405361,82.795691 q -0.233083,0.1232 -0.702577,0.1232 -1.112137,0 -1.112137,-1.155423 v -1.561654 h -0.552739 v -0.775832 h 0.552739 v -0.735875 l 1.048871,-0.299677 v 1.035552 h 0.765843 v 0.775832 h -0.765843 v 1.378517 q 0,0.532761 0.422879,0.532761 0.166487,0 0.342964,-0.09656 z" id="path859"></path></g><path style="fill:url(#linearGradient28634);fill-opacity:1;stroke:none;stroke-width:0.0742148px;stroke-linecap:butt;stroke-linejoin:miter;stroke-opacity:1" d="m 62.747155,76.522349 1.502675,0.644719 v 3.956749 l -0.126852,0.122202 z" id="path3289"></path><g id="g26793" transform="matrix(0.43597714,0,0,0.37655064,23.833431,46.829723)" style="fill:url(#linearGradient27736);fill-opacity:1;stroke:none;stroke-opacity:1"><path style="fill:url(#linearGradient34270);fill-opacity:1;stroke:none;stroke-width:0.183167px;stroke-linecap:butt;stroke-linejoin:miter;stroke-opacity:1" d="m 88.60729,82.323353 h -3.3012 l 7.083593,10.6198 0.16786,-0.40286 z" id="path3291"></path><path style="fill:url(#linearGradient34272);fill-opacity:1;stroke:none;stroke-width:0.183167px;stroke-linecap:butt;stroke-linejoin:miter;stroke-opacity:1" d="m 92.546353,93.939103 v -0.41405 l -6.714307,-8.03479 -3.01025,0.80571 z" id="path3293"></path><path style="fill:url(#linearGradient34274);fill-opacity:1;stroke:none;stroke-width:0.183167px;stroke-linecap:butt;stroke-linejoin:miter;stroke-opacity:1" d="m 92.714203,94.890293 -0.10071,-0.36929 -8.762171,-5.41621 -2.652149,1.74572 z" id="path3295"></path><path style="fill:url(#linearGradient34276);fill-opacity:1;stroke:none;stroke-width:0.183167px;stroke-linecap:butt;stroke-linejoin:miter;stroke-opacity:1" d="m 92.893253,95.729583 -0.2238,-0.34691 -9.802894,-2.32762 -2.103816,2.49548 z" id="path3297"></path></g><g aria-label="CARE" id="text6528" style="font-size:5.12193px;line-height:1.25;font-family:Nir;-inkscape-font-specification:Nir;fill:url(#linearGradient14894);stroke-width:0.128049" transform="translate(0.52916669,-0.52916669)"><path d="m 45.480133,83.361964 q -0.415157,0 -0.76779,-0.122547 -0.350132,-0.122546 -0.602727,-0.365137 -0.252595,-0.242592 -0.392648,-0.605228 -0.137552,-0.362637 -0.137552,-0.837816 0,-0.442667 0.13255,-0.802802 0.13255,-0.360136 0.385145,-0.617733 0.242592,-0.247594 0.600227,-0.382644 0.360135,-0.135051 0.785296,-0.135051 0.235088,0 0.422659,0.02751 0.190071,0.02501 0.350132,0.06753 0.167563,0.04752 0.302614,0.10754 0.137552,0.05752 0.24009,0.107541 v 0.90284 h -0.110041 q -0.07003,-0.06002 -0.177567,-0.142554 -0.10504,-0.08253 -0.240091,-0.162561 -0.137551,-0.08003 -0.297612,-0.135051 -0.16006,-0.05502 -0.342629,-0.05502 -0.202576,0 -0.385145,0.06503 -0.182569,0.06252 -0.337627,0.210079 -0.147556,0.142554 -0.240091,0.377642 -0.09003,0.235089 -0.09003,0.570215 0,0.350132 0.09754,0.585221 0.100038,0.235088 0.250094,0.370139 0.152558,0.137552 0.340129,0.197575 0.18757,0.05752 0.370139,0.05752 0.175066,0 0.34513,-0.05252 0.172565,-0.05252 0.31762,-0.142553 0.122546,-0.07253 0.227586,-0.155059 0.105039,-0.08253 0.172565,-0.142553 h 0.100037 v 0.890335 q -0.140052,0.06252 -0.267601,0.117544 -0.127548,0.05502 -0.2676,0.09504 -0.182569,0.05252 -0.342629,0.08003 -0.160061,0.02751 -0.440166,0.02751 z" style="font-weight:bold;-inkscape-font-specification:'Nir, Bold';fill:url(#linearGradient3591)" id="path933"></path><path d="m 50.944692,83.289436 h -0.992874 l -0.257597,-0.752783 h -1.38052 l -0.257598,0.752783 h -0.967864 l 1.375518,-3.723903 h 1.105417 z m -1.483059,-1.435541 -0.457672,-1.335503 -0.457673,1.335503 z" style="font-weight:bold;-inkscape-font-specification:'Nir, Bold';fill:url(#linearGradient3593)" id="path935"></path><path d="m 53.56818,80.705963 q 0,-0.140053 -0.05752,-0.240091 -0.05752,-0.100037 -0.197575,-0.157559 -0.09754,-0.04001 -0.227585,-0.04752 -0.130049,-0.01 -0.302614,-0.01 h -0.347631 v 1.002878 h 0.295111 q 0.230086,0 0.385145,-0.02251 0.155058,-0.02251 0.260098,-0.102539 0.100038,-0.07753 0.145055,-0.170064 0.04752,-0.09504 0.04752,-0.252595 z m 1.498065,2.583473 H 53.893303 L 52.87792,81.923922 h -0.442666 v 1.365514 h -0.95536 V 79.565533 H 53.0905 q 0.330125,0 0.567714,0.03751 0.23759,0.03751 0.445168,0.162561 0.210079,0.125048 0.332626,0.325123 0.125047,0.197574 0.125047,0.497688 0,0.412655 -0.192573,0.672753 -0.190072,0.260098 -0.545205,0.432663 z" style="font-weight:bold;-inkscape-font-specification:'Nir, Bold';fill:url(#linearGradient3595)" id="path937"></path><path d="m 58.179919,83.289436 h -2.693515 v -3.723903 h 2.693515 v 0.720271 h -1.738155 v 0.642743 h 1.613108 v 0.720271 h -1.613108 v 0.920347 h 1.738155 z" style="font-weight:bold;-inkscape-font-specification:'Nir, Bold';fill:url(#linearGradient3597)" id="path939"></path></g></g></svg> 